<svg width="194" height="84" viewBox="0 0 144 34" fill="none" xmlns="http://www.w3.org/2000/svg">
<path d="M24.349 21.169C24.883 20.911 25.384 20.782 25.852 20.782C26.68 20.782 27.331 21.109 27.805 21.763C28.279 22.417 28.516 23.239 28.516 24.229C28.516 25.051 28.333 25.783 27.967 26.425C27.559 27.139 26.986 27.634 26.248 27.91C25.846 28.06 25.423 28.135 24.979 28.135C24.535 28.135 24.124 28.084 23.746 27.982C23.374 27.88 23.104 27.778 22.936 27.676L22.675 27.523C22.681 27.475 22.747 27.028 22.873 26.182C23.137 24.418 23.269 22.819 23.269 21.385C23.269 20.911 23.227 20.575 23.143 20.377C23.785 20.545 24.187 20.809 24.349 21.169ZM23.989 27.325C24.223 27.415 24.484 27.46 24.772 27.46C25.294 27.46 25.744 27.292 26.122 26.956C26.506 26.62 26.782 26.209 26.95 25.723C27.124 25.237 27.211 24.721 27.211 24.175C27.211 23.407 27.046 22.78 26.716 22.294C26.386 21.808 25.942 21.565 25.384 21.565C25.036 21.565 24.73 21.619 24.466 21.727C24.466 22.093 24.385 23.014 24.223 24.49C24.067 25.966 23.989 26.911 23.989 27.325ZM32.5459 24.994L31.6819 24.985C31.4179 24.985 31.2169 24.988 31.0789 24.994C30.9889 25.792 30.9409 26.476 30.9349 27.046C32.3449 27.046 33.3919 26.932 34.0759 26.704C34.0219 27.148 33.8869 27.493 33.6709 27.739C33.4549 27.985 33.1849 28.108 32.8609 28.108C32.7649 28.108 32.4949 28.081 32.0509 28.027C31.6129 27.979 31.1479 27.955 30.6559 27.955C30.1639 27.955 29.6839 28.006 29.2159 28.108C29.2819 27.826 29.4259 27.595 29.6479 27.415V27.379C29.6479 27.055 29.7319 26.317 29.8999 25.165C29.7499 25.219 29.6209 25.267 29.5129 25.309C29.5009 25.177 29.4949 25.078 29.4949 25.012C29.4949 24.61 29.6719 24.355 30.0259 24.247C30.1339 23.455 30.2059 22.741 30.2419 22.105C30.0199 22.093 29.8789 22.042 29.8189 21.952C29.7589 21.862 29.7289 21.685 29.7289 21.421C29.7469 21.151 29.7709 20.974 29.8009 20.89C30.4729 20.98 31.2139 21.025 32.0239 21.025C32.8399 21.025 33.6259 20.953 34.3819 20.809C34.2979 21.439 33.9139 21.817 33.2299 21.943C32.8279 22.021 32.2309 22.072 31.4389 22.096C31.4329 22.162 31.3459 22.858 31.1779 24.184C31.5379 24.196 31.7869 24.202 31.9249 24.202C32.4949 24.202 32.8999 24.103 33.1399 23.905C33.1519 24.025 33.1579 24.115 33.1579 24.175C33.1579 24.721 32.9539 24.994 32.5459 24.994ZM37.5936 28C37.5456 28.018 37.4256 28.042 37.2336 28.072C37.0416 28.108 36.8646 28.126 36.7026 28.126C36.5466 28.126 36.4566 28.081 36.4326 27.991C36.3246 27.619 36.1626 26.893 35.9466 25.813C35.7306 24.727 35.5116 23.743 35.2896 22.861C35.0736 21.979 34.8636 21.394 34.6596 21.106C34.9896 20.95 35.2506 20.872 35.4426 20.872C35.6346 20.872 35.7726 20.893 35.8566 20.935C35.9406 20.977 36.0216 21.07 36.0996 21.214C36.1836 21.358 36.2556 21.55 36.3156 21.79C36.4056 22.15 36.5166 22.684 36.6486 23.392C36.7806 24.1 36.8556 24.49 36.8736 24.562C37.0836 25.63 37.2216 26.362 37.2876 26.758C37.6776 25.924 38.1096 24.817 38.5836 23.437C39.0576 22.051 39.2946 21.151 39.2946 20.737C39.9726 20.851 40.3116 21.073 40.3116 21.403C40.3116 21.649 40.1406 22.171 39.7986 22.969C39.4626 23.761 39.0546 24.676 38.5746 25.714C38.1006 26.746 37.7736 27.508 37.5936 28ZM45.8748 23.95C45.8748 23.11 45.7578 22.501 45.5238 22.123C45.2958 21.745 44.9808 21.556 44.5788 21.556C44.1828 21.556 43.8048 21.733 43.4448 22.087C43.0908 22.435 42.8118 22.876 42.6078 23.41C42.4098 23.944 42.3108 24.484 42.3108 25.03C42.3108 25.78 42.4338 26.395 42.6798 26.875C42.9318 27.355 43.3098 27.595 43.8138 27.595C44.2338 27.595 44.6028 27.412 44.9208 27.046C45.2448 26.674 45.4848 26.215 45.6408 25.669C45.7968 25.123 45.8748 24.55 45.8748 23.95ZM46.0368 27.244C45.7668 27.538 45.4278 27.775 45.0198 27.955C44.6178 28.135 44.1768 28.225 43.6968 28.225C43.2168 28.225 42.7938 28.117 42.4278 27.901C42.0678 27.685 41.7798 27.397 41.5638 27.037C41.1318 26.317 40.9158 25.477 40.9158 24.517C40.9158 23.557 41.1528 22.702 41.6268 21.952C42.1068 21.202 42.7458 20.728 43.5438 20.53C43.5918 20.542 43.6368 20.566 43.6788 20.602C43.7268 20.638 43.7538 20.677 43.7598 20.719C42.9858 21.283 42.5178 22.051 42.3558 23.023C42.6078 22.315 42.9858 21.763 43.4898 21.367C43.9998 20.965 44.5458 20.764 45.1278 20.764C45.7098 20.764 46.2048 21.016 46.6128 21.52C47.0268 22.018 47.2338 22.741 47.2338 23.689C47.2338 24.619 47.0598 25.456 46.7118 26.2C46.5318 26.596 46.3068 26.944 46.0368 27.244ZM47.8616 21.511C47.8736 21.277 47.8976 21.097 47.9336 20.971C48.5816 21.079 49.3586 21.133 50.2646 21.133C51.1706 21.133 52.1186 21.025 53.1086 20.809C53.0066 21.571 52.6196 21.988 51.9476 22.06C51.7376 22.09 51.4136 22.12 50.9756 22.15C50.9636 22.324 50.8646 23.086 50.6786 24.436C50.4926 25.78 50.3996 26.707 50.3996 27.217C50.3996 27.727 50.4416 28.081 50.5256 28.279C50.0156 28.147 49.6676 27.973 49.4816 27.757C49.2956 27.535 49.2026 27.262 49.2026 26.938C49.2026 26.614 49.2776 25.912 49.4276 24.832C49.5836 23.746 49.6766 22.873 49.7066 22.213C49.2206 22.237 48.7436 22.249 48.2756 22.249C47.9996 22.249 47.8616 22.003 47.8616 21.511ZM54.9354 21.223C54.9834 21.319 55.0104 21.409 55.0164 21.493C55.0284 21.577 55.0344 21.73 55.0344 21.952C55.0344 22.174 54.9354 22.963 54.7374 24.319C54.5394 25.675 54.4404 26.626 54.4404 27.172C54.4404 27.712 54.4824 28.081 54.5664 28.279C54.0564 28.147 53.7084 27.973 53.5224 27.757C53.3364 27.535 53.2434 27.229 53.2434 26.839C53.2434 26.611 53.3064 26.032 53.4324 25.102C53.6544 23.56 53.7654 22.366 53.7654 21.52C53.7654 21.34 53.7534 21.094 53.7294 20.782C54.1854 20.806 54.5184 20.878 54.7284 20.998C54.8184 21.046 54.8874 21.121 54.9354 21.223ZM61.0711 23.95C61.0711 23.11 60.9541 22.501 60.7201 22.123C60.4921 21.745 60.1771 21.556 59.7751 21.556C59.3791 21.556 59.0011 21.733 58.6411 22.087C58.2871 22.435 58.0081 22.876 57.8041 23.41C57.6061 23.944 57.5071 24.484 57.5071 25.03C57.5071 25.78 57.6301 26.395 57.8761 26.875C58.1281 27.355 58.5061 27.595 59.0101 27.595C59.4301 27.595 59.7991 27.412 60.1171 27.046C60.4411 26.674 60.6811 26.215 60.8371 25.669C60.9931 25.123 61.0711 24.55 61.0711 23.95ZM61.2331 27.244C60.9631 27.538 60.6241 27.775 60.2161 27.955C59.8141 28.135 59.3731 28.225 58.8931 28.225C58.4131 28.225 57.9901 28.117 57.6241 27.901C57.2641 27.685 56.9761 27.397 56.7601 27.037C56.3281 26.317 56.1121 25.477 56.1121 24.517C56.1121 23.557 56.3491 22.702 56.8231 21.952C57.3031 21.202 57.9421 20.728 58.7401 20.53C58.7881 20.542 58.8331 20.566 58.8751 20.602C58.9231 20.638 58.9501 20.677 58.9561 20.719C58.1821 21.283 57.7141 22.051 57.5521 23.023C57.8041 22.315 58.1821 21.763 58.6861 21.367C59.1961 20.965 59.7421 20.764 60.3241 20.764C60.9061 20.764 61.4011 21.016 61.8091 21.52C62.2231 22.018 62.4301 22.741 62.4301 23.689C62.4301 24.619 62.2561 25.456 61.9081 26.2C61.7281 26.596 61.5031 26.944 61.2331 27.244ZM67.4319 27.658C67.3239 27.502 66.9609 26.836 66.3429 25.66C65.7309 24.478 65.2959 23.656 65.0379 23.194C65.0139 23.398 64.9599 23.788 64.8759 24.364C64.7139 25.528 64.6329 26.506 64.6329 27.298C64.6329 27.484 64.6449 27.733 64.6689 28.045C64.2489 28.045 63.9639 27.997 63.8139 27.901C63.6699 27.799 63.5979 27.658 63.5979 27.478C63.5979 27.424 63.6969 26.62 63.8949 25.066C64.0929 23.506 64.1949 22.414 64.2009 21.79L64.1199 21.673C63.9699 21.451 63.7719 21.265 63.5259 21.115C63.4659 21.079 63.4299 21.055 63.4179 21.043C63.7059 20.869 63.9819 20.782 64.2459 20.782C64.7739 20.782 65.1609 20.956 65.4069 21.304C65.6529 21.646 66.1119 22.495 66.7839 23.851C66.8559 24.001 66.9639 24.229 67.1079 24.535C67.2579 24.835 67.3779 25.078 67.4679 25.264C67.6779 25.714 67.9029 26.137 68.1429 26.533C68.1609 26.299 68.2419 25.582 68.3859 24.382C68.5359 23.176 68.6109 22.222 68.6109 21.52C68.6109 21.334 68.5989 21.091 68.5749 20.791C68.9949 20.791 69.2769 20.839 69.4209 20.935C69.5649 21.031 69.6369 21.166 69.6369 21.34C69.6369 21.406 69.5379 22.243 69.3399 23.851C69.1419 25.459 69.0429 26.572 69.0429 27.19C69.0429 27.412 69.0489 27.574 69.0609 27.676C69.1089 27.718 69.1869 27.769 69.2949 27.829C68.9229 28.069 68.5779 28.189 68.2599 28.189C67.9419 28.189 67.6659 28.012 67.4319 27.658ZM75.1385 28.144C74.9225 28.144 74.7635 28.09 74.6615 27.982C74.5595 27.868 74.4725 27.7 74.4005 27.478C74.3285 27.25 74.1875 26.644 73.9775 25.66C73.8395 25.78 73.6145 25.846 73.3025 25.858L71.7635 25.912C71.3975 26.806 71.1275 27.601 70.9535 28.297C70.3775 28.093 70.0895 27.862 70.0895 27.604C70.0895 27.49 70.2635 27.064 70.6115 26.326C70.9595 25.588 71.3525 24.751 71.7905 23.815C72.2345 22.873 72.5345 22.189 72.6905 21.763L72.8525 21.322C72.8045 21.238 72.6875 21.085 72.5015 20.863C72.7175 20.791 72.9035 20.755 73.0595 20.755C73.2215 20.755 73.3535 20.767 73.4555 20.791C73.5635 20.815 73.6565 20.857 73.7345 20.917C73.8185 20.971 73.8905 21.028 73.9505 21.088C74.0165 21.148 74.0765 21.238 74.1305 21.358C74.1845 21.472 74.2295 21.577 74.2655 21.673C74.3015 21.763 74.3405 21.892 74.3825 22.06C74.4305 22.228 74.4665 22.375 74.4905 22.501C74.5205 22.621 74.5565 22.792 74.5985 23.014C74.6465 23.23 74.6945 23.44 74.7425 23.644C74.7905 23.848 74.8745 24.238 74.9945 24.814C75.1145 25.384 75.2075 25.813 75.2735 26.101C75.3455 26.383 75.4445 26.701 75.5705 27.055C75.7025 27.409 75.8405 27.688 75.9845 27.892C75.6365 28.06 75.3545 28.144 75.1385 28.144ZM73.2665 22.519C73.1825 22.711 72.9965 23.122 72.7085 23.752C72.4265 24.376 72.2075 24.874 72.0515 25.246H73.8965C73.6145 23.95 73.4045 23.041 73.2665 22.519ZM76.3223 28.108C76.4123 27.76 76.5953 27.496 76.8713 27.316C76.8413 27.196 76.8263 27.031 76.8263 26.821C76.8263 26.605 76.8893 26.032 77.0153 25.102C77.2373 23.56 77.3483 22.366 77.3483 21.52C77.3483 21.34 77.3363 21.094 77.3123 20.782C77.7683 20.806 78.1013 20.878 78.3113 20.998C78.4013 21.046 78.4703 21.121 78.5183 21.223C78.5663 21.319 78.5933 21.409 78.5993 21.493C78.6113 21.577 78.6173 21.73 78.6173 21.952C78.6173 22.174 78.5243 22.903 78.3383 24.139C78.1583 25.369 78.0533 26.338 78.0233 27.046C79.4453 27.046 80.4983 26.932 81.1823 26.704C81.1283 27.148 80.9933 27.493 80.7773 27.739C80.5613 27.985 80.2913 28.108 79.9673 28.108C79.8713 28.108 79.6013 28.081 79.1573 28.027C78.7193 27.979 78.2543 27.955 77.7623 27.955C77.2703 27.955 76.7903 28.006 76.3223 28.108ZM84.0072 21.358C83.7372 21.358 83.5122 21.442 83.3322 21.61C83.1522 21.772 83.0622 22.003 83.0622 22.303C83.0622 22.603 83.1372 22.873 83.2872 23.113C83.4432 23.347 83.6322 23.548 83.8542 23.716C84.0822 23.878 84.3282 24.055 84.5922 24.247C84.8622 24.439 85.1082 24.622 85.3302 24.796C85.5582 24.964 85.7472 25.174 85.8972 25.426C86.0532 25.678 86.1312 25.945 86.1312 26.227C86.1312 26.785 85.9032 27.259 85.4472 27.649C84.9912 28.033 84.3912 28.225 83.6472 28.225C82.9092 28.225 82.3242 28.066 81.8922 27.748C81.4602 27.43 81.2442 27.07 81.2442 26.668C81.2442 26.266 81.3642 25.954 81.6042 25.732C81.8442 25.504 82.1532 25.39 82.5312 25.39C82.6392 25.39 82.7412 25.402 82.8372 25.426C82.6512 25.702 82.5582 26.002 82.5582 26.326C82.5582 26.644 82.6572 26.92 82.8552 27.154C83.0532 27.382 83.3142 27.496 83.6382 27.496C83.9682 27.496 84.2442 27.412 84.4662 27.244C84.6882 27.07 84.7992 26.851 84.7992 26.587C84.7992 26.317 84.7242 26.08 84.5742 25.876C84.4242 25.672 84.2382 25.498 84.0162 25.354C83.7942 25.204 83.5512 25.036 83.2872 24.85C83.0232 24.658 82.7802 24.466 82.5582 24.274C82.3362 24.082 82.1502 23.839 82.0002 23.545C81.8502 23.245 81.7752 22.918 81.7752 22.564C81.7752 21.994 81.9822 21.541 82.3962 21.205C82.8102 20.863 83.3682 20.692 84.0702 20.692C84.7722 20.692 85.3032 20.851 85.6632 21.169C86.0292 21.481 86.2122 21.817 86.2122 22.177C86.2122 22.531 86.0982 22.831 85.8702 23.077C85.6422 23.317 85.3332 23.437 84.9432 23.437C84.8112 23.437 84.6822 23.425 84.5562 23.401C84.8502 23.089 84.9972 22.762 84.9972 22.42C84.9972 22.072 84.9012 21.808 84.7092 21.628C84.5172 21.448 84.2832 21.358 84.0072 21.358ZM90.298 27.523C90.304 27.475 90.37 27.028 90.496 26.182C90.76 24.418 90.892 22.819 90.892 21.385C90.892 20.911 90.85 20.575 90.766 20.377C91.408 20.545 91.81 20.809 91.972 21.169C92.434 20.911 92.923 20.782 93.439 20.782C93.955 20.782 94.375 20.929 94.699 21.223C95.029 21.511 95.194 21.865 95.194 22.285C95.194 22.699 95.044 23.086 94.744 23.446C94.444 23.8 94.033 24.064 93.511 24.238C93.931 24.328 94.315 24.532 94.663 24.85C95.017 25.162 95.194 25.549 95.194 26.011C95.194 26.719 94.93 27.265 94.402 27.649C93.88 28.027 93.217 28.216 92.413 28.216C91.615 28.216 90.91 27.985 90.298 27.523ZM93.925 22.492C93.925 22.222 93.841 21.997 93.673 21.817C93.505 21.631 93.268 21.538 92.962 21.538C92.656 21.538 92.362 21.601 92.08 21.727C92.08 22.093 91.999 23.014 91.837 24.49C91.681 25.966 91.603 26.911 91.603 27.325C91.867 27.433 92.122 27.487 92.368 27.487C92.794 27.487 93.145 27.346 93.421 27.064C93.697 26.782 93.835 26.428 93.835 26.002C93.835 25.576 93.691 25.222 93.403 24.94C93.115 24.652 92.713 24.496 92.197 24.472L92.17 24.148C92.722 24.07 93.151 23.869 93.457 23.545C93.769 23.215 93.925 22.864 93.925 22.492ZM98.2604 24.364L98.3234 24.715C98.8754 23.857 99.3224 23.047 99.6644 22.285C100.012 21.523 100.216 20.929 100.276 20.503C100.726 20.755 100.951 21.088 100.951 21.502C100.951 21.946 100.192 23.263 98.6744 25.453C98.5784 26.263 98.5304 26.887 98.5304 27.325C98.5304 27.763 98.5724 28.081 98.6564 28.279C98.1464 28.147 97.7984 27.973 97.6124 27.757C97.4264 27.535 97.3334 27.259 97.3334 26.929C97.3334 26.593 97.3784 26.116 97.4684 25.498C96.8264 23.206 96.2714 21.709 95.8034 21.007C96.0494 20.851 96.3074 20.773 96.5774 20.773C96.7214 20.773 96.8414 20.788 96.9374 20.818C97.0394 20.842 97.1384 20.902 97.2344 20.998C97.3304 21.094 97.4114 21.217 97.4774 21.367C97.5494 21.517 97.6274 21.736 97.7114 22.024C97.8554 22.48 98.0384 23.26 98.2604 24.364ZM103.971 21.511C103.983 21.277 104.007 21.097 104.043 20.971C104.691 21.079 105.468 21.133 106.374 21.133C107.28 21.133 108.228 21.025 109.218 20.809C109.116 21.571 108.729 21.988 108.057 22.06C107.847 22.09 107.523 22.12 107.085 22.15C107.073 22.324 106.974 23.086 106.788 24.436C106.602 25.78 106.509 26.707 106.509 27.217C106.509 27.727 106.551 28.081 106.635 28.279C106.125 28.147 105.777 27.973 105.591 27.757C105.405 27.535 105.312 27.262 105.312 26.938C105.312 26.614 105.387 25.912 105.537 24.832C105.693 23.746 105.786 22.873 105.816 22.213C105.33 22.237 104.853 22.249 104.385 22.249C104.109 22.249 103.971 22.003 103.971 21.511ZM114.087 23.95C114.087 23.11 113.97 22.501 113.736 22.123C113.508 21.745 113.193 21.556 112.791 21.556C112.395 21.556 112.017 21.733 111.657 22.087C111.303 22.435 111.024 22.876 110.82 23.41C110.622 23.944 110.523 24.484 110.523 25.03C110.523 25.78 110.646 26.395 110.892 26.875C111.144 27.355 111.522 27.595 112.026 27.595C112.446 27.595 112.815 27.412 113.133 27.046C113.457 26.674 113.697 26.215 113.853 25.669C114.009 25.123 114.087 24.55 114.087 23.95ZM114.249 27.244C113.979 27.538 113.64 27.775 113.232 27.955C112.83 28.135 112.389 28.225 111.909 28.225C111.429 28.225 111.006 28.117 110.64 27.901C110.28 27.685 109.992 27.397 109.776 27.037C109.344 26.317 109.128 25.477 109.128 24.517C109.128 23.557 109.365 22.702 109.839 21.952C110.319 21.202 110.958 20.728 111.756 20.53C111.804 20.542 111.849 20.566 111.891 20.602C111.939 20.638 111.966 20.677 111.972 20.719C111.198 21.283 110.73 22.051 110.568 23.023C110.82 22.315 111.198 21.763 111.702 21.367C112.212 20.965 112.758 20.764 113.34 20.764C113.922 20.764 114.417 21.016 114.825 21.52C115.239 22.018 115.446 22.741 115.446 23.689C115.446 24.619 115.272 25.456 114.924 26.2C114.744 26.596 114.519 26.944 114.249 27.244ZM120.241 26.308C120.025 26.392 119.857 26.434 119.737 26.434C119.377 26.434 119.176 26.383 119.134 26.281C118.534 24.739 118.138 23.746 117.946 23.302C117.928 23.464 117.88 23.839 117.802 24.427C117.64 25.579 117.559 26.536 117.559 27.298C117.559 27.484 117.571 27.733 117.595 28.045C117.175 28.045 116.89 27.997 116.74 27.901C116.596 27.799 116.524 27.658 116.524 27.478C116.524 27.418 116.623 26.602 116.821 25.03C117.025 23.458 117.127 22.363 117.127 21.745V21.7C116.953 21.418 116.77 21.187 116.578 21.007C116.8 20.851 117.067 20.773 117.379 20.773C117.775 20.773 118.081 20.959 118.297 21.331C118.513 21.697 118.936 22.708 119.566 24.364L119.98 25.426C120.016 25.366 120.07 25.285 120.142 25.183C121.606 23.017 122.359 21.547 122.401 20.773C122.401 20.779 122.473 20.788 122.617 20.8C122.761 20.806 122.914 20.836 123.076 20.89C123.244 20.938 123.364 21.016 123.436 21.124C123.514 21.226 123.562 21.328 123.58 21.43C123.598 21.526 123.607 21.694 123.607 21.934C123.607 22.168 123.508 22.963 123.31 24.319C123.112 25.675 123.013 26.626 123.013 27.172C123.013 27.712 123.055 28.081 123.139 28.279C122.629 28.147 122.281 27.973 122.095 27.757C121.909 27.535 121.816 27.229 121.816 26.839C121.816 26.611 121.876 26.05 121.996 25.156C122.122 24.262 122.209 23.548 122.257 23.014C122.017 23.428 121.675 23.995 121.231 24.715C120.793 25.435 120.529 25.864 120.439 26.002C120.349 26.134 120.283 26.236 120.241 26.308ZM126.601 21.223C126.649 21.319 126.676 21.409 126.682 21.493C126.694 21.577 126.7 21.73 126.7 21.952C126.7 22.174 126.601 22.963 126.403 24.319C126.205 25.675 126.106 26.626 126.106 27.172C126.106 27.712 126.148 28.081 126.232 28.279C125.722 28.147 125.374 27.973 125.188 27.757C125.002 27.535 124.909 27.229 124.909 26.839C124.909 26.611 124.972 26.032 125.098 25.102C125.32 23.56 125.431 22.366 125.431 21.52C125.431 21.34 125.419 21.094 125.395 20.782C125.851 20.806 126.184 20.878 126.394 20.998C126.484 21.046 126.553 21.121 126.601 21.223ZM133.358 28C133.316 28.018 133.199 28.042 133.007 28.072C132.821 28.108 132.644 28.126 132.476 28.126C132.314 28.126 132.233 28.081 132.233 27.991C132.155 27.673 131.963 26.536 131.657 24.58C130.829 26.422 130.337 27.562 130.181 28C130.139 28.018 130.022 28.042 129.83 28.072C129.638 28.108 129.461 28.126 129.299 28.126C129.137 28.126 129.056 28.081 129.056 27.991C128.966 27.613 128.84 26.884 128.678 25.804C128.516 24.724 128.348 23.743 128.174 22.861C128 21.979 127.82 21.394 127.634 21.106C127.964 20.95 128.234 20.872 128.444 20.872C128.66 20.872 128.816 20.911 128.912 20.989C129.008 21.067 129.095 21.238 129.173 21.502C129.257 21.76 129.332 22.123 129.398 22.591C129.464 23.053 129.521 23.491 129.569 23.905C129.623 24.313 129.65 24.52 129.65 24.526C129.65 24.532 129.653 24.562 129.659 24.616C129.665 24.664 129.71 24.991 129.794 25.597C129.884 26.197 129.941 26.584 129.965 26.758C130.427 25.768 130.904 24.544 131.396 23.086C131.204 22.09 131.009 21.43 130.811 21.106C131.141 20.95 131.411 20.872 131.621 20.872C131.837 20.872 131.993 20.911 132.089 20.989C132.185 21.067 132.272 21.238 132.35 21.502C132.434 21.76 132.509 22.123 132.575 22.591C132.641 23.053 132.698 23.491 132.746 23.905C132.8 24.313 132.827 24.52 132.827 24.526C132.827 24.532 132.83 24.562 132.836 24.616C132.842 24.664 132.887 24.991 132.971 25.597C133.061 26.197 133.118 26.584 133.142 26.758C133.562 25.666 133.988 24.487 134.42 23.221C134.852 21.955 135.08 21.127 135.104 20.737C135.752 20.869 136.076 21.079 136.076 21.367C136.076 21.757 135.458 23.308 134.222 26.02C133.742 27.082 133.454 27.742 133.358 28ZM141.048 28.144C140.832 28.144 140.673 28.09 140.571 27.982C140.469 27.868 140.382 27.7 140.31 27.478C140.238 27.25 140.097 26.644 139.887 25.66C139.749 25.78 139.524 25.846 139.212 25.858L137.673 25.912C137.307 26.806 137.037 27.601 136.863 28.297C136.287 28.093 135.999 27.862 135.999 27.604C135.999 27.49 136.173 27.064 136.521 26.326C136.869 25.588 137.262 24.751 137.7 23.815C138.144 22.873 138.444 22.189 138.6 21.763L138.762 21.322C138.714 21.238 138.597 21.085 138.411 20.863C138.627 20.791 138.813 20.755 138.969 20.755C139.131 20.755 139.263 20.767 139.365 20.791C139.473 20.815 139.566 20.857 139.644 20.917C139.728 20.971 139.8 21.028 139.86 21.088C139.926 21.148 139.986 21.238 140.04 21.358C140.094 21.472 140.139 21.577 140.175 21.673C140.211 21.763 140.25 21.892 140.292 22.06C140.34 22.228 140.376 22.375 140.4 22.501C140.43 22.621 140.466 22.792 140.508 23.014C140.556 23.23 140.604 23.44 140.652 23.644C140.7 23.848 140.784 24.238 140.904 24.814C141.024 25.384 141.117 25.813 141.183 26.101C141.255 26.383 141.354 26.701 141.48 27.055C141.612 27.409 141.75 27.688 141.894 27.892C141.546 28.06 141.264 28.144 141.048 28.144ZM139.176 22.519C139.092 22.711 138.906 23.122 138.618 23.752C138.336 24.376 138.117 24.874 137.961 25.246H139.806C139.524 23.95 139.314 23.041 139.176 22.519Z" fill="white"/>
<path d="M6.00644 16.9488C5.97515 16.8724 5.91957 16.8046 5.84565 16.7526C5.77173 16.7006 5.68224 16.6663 5.58676 16.6534L4.4143 16.5047L3.88447 15.5641C3.8421 15.4889 3.77496 15.4253 3.69089 15.3808C3.60682 15.3363 3.5093 15.3127 3.40971 15.3127C3.31013 15.3127 3.21261 15.3363 3.12854 15.3808C3.04446 15.4253 2.97732 15.4889 2.93496 15.5641L2.40512 16.5047L1.23267 16.6534C1.1371 16.6655 1.04739 16.6994 0.973421 16.7513C0.899453 16.8032 0.844095 16.8711 0.813447 16.9476C0.782798 17.024 0.778048 17.106 0.79972 17.1846C0.821392 17.2632 0.868644 17.3352 0.936272 17.3928L1.79922 18.1322L1.59463 19.18C1.5794 19.2607 1.59145 19.3434 1.62945 19.4188C1.66744 19.4941 1.72986 19.5592 1.80971 19.6066C1.88991 19.6544 1.98475 19.6823 2.08319 19.6869C2.18163 19.6916 2.27962 19.6728 2.36578 19.6328L3.40971 19.1516L4.45365 19.6328C4.53048 19.6689 4.61725 19.6878 4.70545 19.6875C4.81456 19.6879 4.92104 19.6596 5.00971 19.6066C5.08956 19.5592 5.15199 19.4941 5.18998 19.4188C5.22798 19.3434 5.24003 19.2607 5.2248 19.18L5.02021 18.1322L5.88316 17.3928C5.95109 17.3356 5.9986 17.2638 6.02037 17.1854C6.04214 17.1069 6.03732 17.025 6.00644 16.9488ZM4.08381 17.6772C4.02652 17.7263 3.98385 17.7859 3.95925 17.8512C3.93465 17.9166 3.9288 17.9859 3.94217 18.0534L4.01562 18.4319L3.66414 18.27C3.58624 18.2341 3.4987 18.2153 3.40971 18.2153C3.32073 18.2153 3.23319 18.2341 3.15529 18.27L2.80381 18.4319L2.87726 18.0534C2.89125 17.9858 2.8857 17.9164 2.86107 17.851C2.83643 17.7856 2.79342 17.726 2.73562 17.6772L2.39988 17.3906L2.84053 17.3337C2.92562 17.3232 3.00628 17.2954 3.07536 17.2526C3.14445 17.2099 3.19983 17.1536 3.2366 17.0888L3.40971 16.7803L3.58283 17.0888C3.6196 17.1536 3.67498 17.2099 3.74407 17.2526C3.81315 17.2954 3.89381 17.3232 3.97889 17.3337L4.41955 17.3906L4.08381 17.6772ZM25.9933 16.9488C25.9624 17.025 25.9576 17.1069 25.9794 17.1854C26.0012 17.2638 26.0487 17.3356 26.1166 17.3928L26.9795 18.1322L26.775 19.18C26.7597 19.2607 26.7718 19.3434 26.8098 19.4188C26.8478 19.4941 26.9102 19.5592 26.99 19.6066C27.0702 19.6544 27.1651 19.6823 27.2635 19.6869C27.3619 19.6916 27.4599 19.6728 27.5461 19.6328L28.59 19.1516L29.634 19.6328C29.7108 19.6689 29.7976 19.6878 29.8858 19.6875C29.9949 19.6879 30.1014 19.6596 30.19 19.6066C30.2699 19.5592 30.3323 19.4941 30.3703 19.4188C30.4083 19.3434 30.4204 19.2607 30.4051 19.18L30.2005 18.1322L31.0635 17.3928C31.1311 17.3352 31.1784 17.2632 31.2 17.1846C31.2217 17.106 31.217 17.024 31.1863 16.9476C31.1557 16.8711 31.1003 16.8032 31.0263 16.7513C30.9524 16.6994 30.8627 16.6655 30.7671 16.6534L29.5946 16.5047L29.0648 15.5641C29.0224 15.4889 28.9553 15.4253 28.8712 15.3808C28.7871 15.3363 28.6896 15.3127 28.59 15.3127C28.4905 15.3127 28.3929 15.3363 28.3089 15.3808C28.2248 15.4253 28.1576 15.4889 28.1153 15.5641L27.5854 16.5047L26.413 16.6534C26.3175 16.6663 26.228 16.7006 26.1541 16.7526C26.0802 16.8046 26.0246 16.8724 25.9933 16.9488ZM28.0209 17.3337C28.1059 17.3232 28.1866 17.2954 28.2557 17.2526C28.3248 17.2099 28.3802 17.1536 28.4169 17.0888L28.59 16.7803L28.7632 17.0888C28.7999 17.1536 28.8553 17.2099 28.9244 17.2526C28.9935 17.2954 29.0741 17.3232 29.1592 17.3337L29.5999 17.3906L29.2641 17.6772C29.2063 17.726 29.1633 17.7856 29.1387 17.851C29.114 17.9164 29.1085 17.9858 29.1225 18.0534L29.1959 18.4319L28.8445 18.27C28.7666 18.2341 28.679 18.2153 28.59 18.2153C28.5011 18.2153 28.4135 18.2341 28.3356 18.27L27.9841 18.4319L28.0576 18.0534C28.071 17.9859 28.0651 17.9166 28.0405 17.8512C28.0159 17.7859 27.9732 17.7263 27.9159 17.6772L27.5802 17.3906L28.0209 17.3337ZM25.9841 11.2962C26.0271 11.4066 26.1209 11.4982 26.2449 11.5508C26.3688 11.6035 26.5128 11.613 26.6451 11.5771L31.6374 10.2252C31.7698 10.1894 31.8796 10.1111 31.9428 10.0077C32.006 9.90421 32.0173 9.78408 31.9743 9.67367C31.9313 9.56327 31.8374 9.47164 31.7134 9.41894C31.5894 9.36625 31.4453 9.3568 31.3129 9.39269L26.3212 10.745C26.1889 10.7809 26.0792 10.8591 26.016 10.9625C25.9529 11.0659 25.9412 11.1859 25.9841 11.2962ZM22.1704 6.92125C22.2261 6.95503 22.2893 6.97932 22.3563 6.99273C22.4233 7.00614 22.4928 7.00841 22.5609 6.99941C22.6289 6.99041 22.6942 6.97032 22.7529 6.94028C22.8117 6.91024 22.8627 6.87085 22.9032 6.82434L25.9886 3.28497C26.0704 3.19107 26.1041 3.07391 26.0824 2.95927C26.0606 2.84463 25.9851 2.7419 25.8725 2.67367C25.7599 2.60544 25.6195 2.57731 25.482 2.59547C25.3445 2.61362 25.2214 2.67657 25.1395 2.77047L22.0544 6.30984C22.0139 6.35632 21.9848 6.409 21.9687 6.46487C21.9526 6.52074 21.9498 6.57871 21.9606 6.63547C21.9714 6.69222 21.9954 6.74665 22.0314 6.79565C22.0674 6.84465 22.1146 6.88747 22.1704 6.92125ZM9.09653 6.82434C9.17879 6.91714 9.30168 6.97908 9.43844 6.99666C9.57521 7.01424 9.71475 6.98604 9.8267 6.91821C9.93865 6.85038 10.0139 6.74841 10.0362 6.63451C10.0584 6.5206 10.0257 6.40399 9.94532 6.31006L6.86021 2.77047C6.7784 2.67657 6.65521 2.61362 6.51775 2.59547C6.38029 2.57731 6.23981 2.60544 6.12722 2.67367C6.01463 2.7419 5.93915 2.84463 5.91738 2.95927C5.89562 3.07391 5.92935 3.19107 6.01116 3.28497L9.09653 6.82434ZM0.362371 10.225L5.35437 11.5769C5.48668 11.6128 5.63067 11.6034 5.75465 11.5507C5.87863 11.4981 5.97246 11.4065 6.01548 11.2961C6.05851 11.1858 6.04721 11.0657 5.98408 10.9623C5.92094 10.8589 5.81114 10.7807 5.67883 10.7448L0.68683 9.39312C0.554517 9.35724 0.410532 9.36666 0.286549 9.41932C0.162566 9.47197 0.068741 9.56354 0.0257151 9.67389C-0.0173109 9.78424 -0.00601361 9.90432 0.0571216 10.0077C0.120257 10.1111 0.230058 10.1891 0.362371 10.225ZM15.9999 5.25C16.139 5.25 16.2724 5.20391 16.3708 5.12186C16.4692 5.03981 16.5245 4.92853 16.5245 4.8125V0.4375C16.5245 0.321468 16.4692 0.210188 16.3708 0.128141C16.2724 0.0460936 16.139 0 15.9999 0C15.8607 0 15.7273 0.0460936 15.6289 0.128141C15.5306 0.210188 15.4753 0.321468 15.4753 0.4375V4.8125C15.4753 4.92853 15.5306 5.03981 15.6289 5.12186C15.7273 5.20391 15.8607 5.25 15.9999 5.25ZM12.0946 5.39744C12.1376 5.50781 12.2314 5.59941 12.3554 5.65209C12.4794 5.70476 12.6235 5.7142 12.7558 5.67831C12.8882 5.64243 12.998 5.56417 13.0612 5.46075C13.1243 5.35733 13.1356 5.23722 13.0926 5.12684L12.2005 2.83872C12.1576 2.72834 12.0638 2.63672 11.9398 2.584C11.8159 2.53129 11.6719 2.5218 11.5395 2.55763C11.4072 2.59345 11.2973 2.67165 11.2341 2.77503C11.1709 2.87841 11.1595 2.9985 11.2025 3.10887L12.0946 5.39744ZM4.43844 7.53922L6.77391 8.95366C6.82954 8.98872 6.893 9.01418 6.96057 9.02855C7.02814 9.04292 7.09846 9.04591 7.16743 9.03735C7.2364 9.02878 7.30264 9.00884 7.36226 8.97868C7.42188 8.94852 7.47369 8.90875 7.51466 8.86169C7.55564 8.81464 7.58495 8.76124 7.60089 8.70463C7.61683 8.64801 7.61908 8.58931 7.6075 8.53197C7.59592 8.47462 7.57075 8.41977 7.53345 8.37063C7.49616 8.3215 7.4475 8.27905 7.3903 8.24578L5.05483 6.83134C4.9992 6.79628 4.93574 6.77082 4.86817 6.75645C4.8006 6.74208 4.73028 6.73909 4.66131 6.74765C4.59234 6.75622 4.5261 6.77616 4.46648 6.80632C4.40686 6.83648 4.35505 6.87625 4.31408 6.92331C4.2731 6.97036 4.24379 7.02376 4.22785 7.08037C4.21191 7.13699 4.20966 7.19569 4.22124 7.25303C4.23282 7.31038 4.25799 7.36523 4.29528 7.41437C4.33258 7.4635 4.38124 7.50595 4.43844 7.53922ZM4.97719 14.4375C5.11632 14.4375 5.24975 14.3914 5.34813 14.3094C5.44651 14.2273 5.50178 14.116 5.50178 14C5.50178 13.884 5.44651 13.7727 5.34813 13.6906C5.24975 13.6086 5.11632 13.5625 4.97719 13.5625H2.09011C1.95098 13.5625 1.81755 13.6086 1.71917 13.6906C1.62079 13.7727 1.56552 13.884 1.56552 14C1.56552 14.116 1.62079 14.2273 1.71917 14.3094C1.81755 14.3914 1.95098 14.4375 2.09011 14.4375H4.97719ZM29.9096 14.4375C30.0488 14.4375 30.1822 14.3914 30.2806 14.3094C30.379 14.2273 30.4342 14.116 30.4342 14C30.4342 13.884 30.379 13.7727 30.2806 13.6906C30.1822 13.6086 30.0488 13.5625 29.9096 13.5625H27.0226C26.8834 13.5625 26.75 13.6086 26.6516 13.6906C26.5532 13.7727 26.498 13.884 26.498 14C26.498 14.116 26.5532 14.2273 26.6516 14.3094C26.75 14.3914 26.8834 14.4375 27.0226 14.4375H29.9096ZM24.493 8.85675C24.5747 8.9506 24.6978 9.01353 24.8352 9.03171C24.9726 9.04988 25.113 9.0218 25.2256 8.95366L27.5611 7.53922C27.6182 7.50595 27.6669 7.4635 27.7042 7.41437C27.7415 7.36523 27.7667 7.31038 27.7783 7.25303C27.7898 7.19569 27.7876 7.13699 27.7716 7.08037C27.7557 7.02376 27.7264 6.97036 27.6854 6.92331C27.6444 6.87625 27.5926 6.83648 27.533 6.80632C27.4734 6.77616 27.4072 6.75622 27.3382 6.74765C27.2692 6.73909 27.1989 6.74208 27.1313 6.75645C27.0638 6.77082 27.0003 6.79628 26.9447 6.83134L24.6092 8.24578C24.5534 8.27952 24.5062 8.3221 24.4702 8.37107C24.4342 8.42004 24.4101 8.47445 24.3993 8.53119C24.3885 8.58793 24.3912 8.64588 24.4073 8.70174C24.4234 8.7576 24.4525 8.81028 24.493 8.85675ZM19.2437 5.67831C19.3092 5.69612 19.3783 5.70298 19.447 5.6985C19.5157 5.69402 19.5826 5.67828 19.644 5.65219C19.7054 5.62611 19.76 5.59018 19.8048 5.54646C19.8495 5.50275 19.8834 5.45211 19.9047 5.39744L20.797 3.10887C20.84 2.9985 20.8286 2.8784 20.7655 2.775C20.7023 2.6716 20.5924 2.59337 20.4601 2.55752C20.3277 2.52166 20.1837 2.53112 20.0597 2.58382C19.9358 2.63651 19.842 2.72812 19.799 2.8385L18.9069 5.12684C18.8639 5.23719 18.8752 5.35726 18.9384 5.46063C19.0016 5.56401 19.1114 5.64245 19.2437 5.67831ZM8.39332 12.9062V14.6562C8.3936 14.8882 8.50422 15.1107 8.70092 15.2747C8.89762 15.4388 9.16433 15.531 9.4425 15.5312H13.9015V27.125C13.9018 27.357 14.0124 27.5794 14.2091 27.7435C14.4058 27.9075 14.6725 27.9998 14.9507 28H17.0491C17.3272 27.9998 17.5939 27.9075 17.7906 27.7435C17.9873 27.5794 18.098 27.357 18.0982 27.125V15.5312H22.5573C22.8354 15.531 23.1021 15.4388 23.2988 15.2747C23.4955 15.1107 23.6062 14.8882 23.6064 14.6562V12.9062C23.6062 12.6743 23.4955 12.4518 23.2988 12.2878C23.1021 12.1237 22.8354 12.0315 22.5573 12.0312H18.0982V7.875C18.098 7.64301 17.9873 7.42058 17.7906 7.25654C17.5939 7.09249 17.3272 7.00023 17.0491 7H14.9507C14.6725 7.00023 14.4058 7.09249 14.2091 7.25654C14.0124 7.42058 13.9018 7.64301 13.9015 7.875V12.0312H9.4425C9.16433 12.0315 8.89762 12.1237 8.70092 12.2878C8.50422 12.4518 8.3936 12.6743 8.39332 12.9062Z" fill="white"/>
</svg>
